<svg xmlns="http://www.w3.org/2000/svg" width="2144" height="1984">
  <path fill-rule="evenodd" d="M1675 42.109c-23.503 3.118-43.074 10.216-57.375 20.809-10.603 7.853-24.57 24.478-31.499 37.492-1.73 3.25-3.523 6.4-3.983 7-1.187 1.547-9.143 23.213-9.143 24.899 0 .884 2.853 2.234 7.75 3.665 4.263 1.246 16.525 5.084 27.25 8.529 36.251 11.642 47.11 14.788 47.94 13.886.45-.489 1.389-2.689 2.086-4.889 2.929-9.247 6.533-15.162 13.422-22.03 11.067-11.034 21.534-15.484 36.351-15.458 18.816.033 35.113 9.925 42.484 25.785 2.699 5.807 3.122 7.846 3.166 15.255.047 7.927-.225 9.11-3.723 16.188-5.383 10.892-11.912 16.417-34.129 28.881-34.59 19.406-44.046 25.564-54.738 35.65-16.374 15.447-26.742 35.258-30.47 58.219-2.309 14.222-2.76 13.282 7.361 15.332 4.813.975 19.1 4.211 31.75 7.191 28.686 6.759 37.67 8.65 38.263 8.057.256-.255 1.342-3.751 2.413-7.767 4.339-16.261 14.166-30.785 27.038-39.96 8.682-6.189 13.615-8.725 28.499-14.65 18.721-7.453 31.831-15.741 43.808-27.693 15.64-15.607 23.769-29.25 29.807-50.026 5.172-17.795 5.995-32.578 2.746-49.339-6.089-31.413-24.004-55.711-54.074-73.342-18.368-10.77-41.007-17.672-71.322-21.743-9.097-1.221-32.274-1.188-41.678.059m-242.097 58.032c-3.485 3.105-25.356 20.32-35.073 27.606l-18.33 13.688c-16.324 12.147-27.675 21.35-40 32.431-9.013 8.104-42.505 40.083-51.889 49.546-34.648 34.941-72.654 87.903-101.962 142.088l-8.445 15.46c-.742 1.243-2.418.994-11.288-1.678-53.628-16.153-120.209-19.626-179.916-9.384-18.291 3.138-31.976 6.174-43.853 9.729-4.594 1.375-8.456 2.359-8.583 2.187s-2.608-5.039-5.515-10.814c-7.159-14.224-12.799-24.789-15.479-29-1.225-1.925-3.952-6.425-6.061-10-3.652-6.193-19.338-31.583-22.509-36.435-.825-1.262-2.99-4.268-4.812-6.68L867.031 272.5c-27.976-37.953-58.841-72.355-91.315-101.78-17.902-16.22-48.693-41.284-69.681-56.72l-17.05-12.75c-3.522-2.857-5.79-2.857-6.941 0-.499 1.238-2.55 6.075-4.557 10.75-8.979 20.912-21.166 56.761-24.476 72l-2.629 12c-1.9 8.601-5.37 28.963-5.377 31.545-.005 1.886.673 2.063 8.745 2.282 18.568.504 35.917 3.762 45.995 8.636 2.885 1.395 5.483 2.537 5.774 2.537s3.971 2.363 8.179 5.25c8.554 5.87 17.972 16.782 21.906 25.384 3.688 8.062 4.793 18.494 3.024 28.554-.804 4.572-2.171 9.662-3.039 11.312s-1.579 3.508-1.583 4.128 2.582 3.096 5.744 5.5c12.074 9.18 21.956 21.741 26.926 34.223 3.387 8.509 4.228 21.997 1.881 30.182-2.058 7.181-7.938 18.408-13.493 25.766-2.235 2.961-4.064 6.154-4.064 7.097s1.736 4.277 3.858 7.409c17.117 25.264 19.277 43.401 7.825 65.695-5.53 10.766-18.278 23.692-27.817 28.207-20.266 9.591-33.226 9.776-63.866.908-11.335-3.28-19.626-1.147-22.528 5.797-.774 1.852-1.706 6.949-2.071 11.327l-.663 7.959 3.381 2.525c1.859 1.388 5.631 3.75 8.381 5.248 17.791 9.694 32.234 27.59 37.143 46.024 1.568 5.887 1.774 22.034.375 29.41-2.228 11.75-10.458 26.479-20.319 36.365-10.179 10.204-16.971 15.057-31.199 22.291l-8 4.068-4.66 14.24c-9.433 28.829-15.707 42.154-29.722 63.131-20.316 30.407-36.508 46.95-63.278 64.647L521.739 844c-.243 0-4.671 2.418-9.84 5.373s-10.411 5.686-11.649 6.068-2.25 1.259-2.25 1.951c0 1.46 10.658 11.812 16.5 16.026 2.2 1.587 5.575 4.352 7.5 6.143 7.268 6.764 37.72 26.09 45.417 28.824 3.592 1.275.71 2.508-30.859 13.2-8.768 2.969-16.358 5.815-16.866 6.323-1.232 1.232.344 3.354 9.889 13.318 24.414 25.487 62.247 55.146 101.224 79.358l12.5 7.77c28.889 17.974 58.004 32.123 104.412 50.74 9.781 3.924 18.458 7.562 19.283 8.084 2.041 1.293-22.108.238-37.5-1.639-15.13-1.844-33.232-4.866-45.5-7.595l-32.5-6.919c-8.85-1.735-58.91-13.588-89.5-21.193l-36-8.823c-3.186-.677-18.694-4.661-62-15.927l-30.5-8.12-25.269-6.499c-15.573-3.659-15.254-3.023-6.189-12.322 13.405-13.751 18.448-21.784 24.052-38.311 1.18-3.482 2.719-7.68 3.419-9.33 1.096-2.583 6.576-19.765 11.003-34.5 6.565-21.849 36.317-112.204 39.02-118.5.708-1.65 2.546-6.825 4.084-11.5s3.375-9.625 4.082-11 1.287-2.95 1.289-3.5c.003-.912 1.258-4.338 10.072-27.5l7.525-20 7.679-20.5c1.656-4.4 4.023-11.375 5.262-15.5l2.251-7.5 17.86.35c24.211.475 46.669-2.303 64.36-7.96 10.865-3.474 32.227-14.481 41.122-21.188 9.884-7.453 18.186-17.633 20.366-24.972 3.461-11.657.715-28.03-5.958-35.519-5.396-6.057-12.113-8.311-27.429-9.203-14.403-.839-18.665-1.848-23.756-5.625-14.486-10.745-10.113-37.427 10.224-62.383 6.122-7.512 7.868-9.129 15.405-14.267 12.702-8.658 30.243-11.309 45.762-6.916 3.98 1.126 7.729 2.352 8.331 2.724 1.996 1.234 12.37 3.387 16.433 3.412 15.092.089 30.589-10.83 35.96-25.337 1.366-3.691 1.67-6.5 1.245-11.5-1.315-15.451-8.324-25.238-22.952-32.046-18.821-8.76-27.175-11.481-42.058-13.697-14.472-2.155-24.113-1.143-42.195 4.429-1.65.508-6.825 2.724-11.5 4.924-12.711 5.98-13.631 6.274-19.655 6.274-5.519 0-5.557-.02-4.896-2.654 1.042-4.152 5.781-10.397 13.053-17.199 9.017-8.435 15.477-12.52 24.998-15.807 7.517-2.595 8.996-2.758 24.5-2.7 15.422.058 17.251.272 27.998 3.274 6.324 1.766 13.524 4.119 16 5.227 6.457 2.89 13.869 3.491 18.13 1.468 5.076-2.408 13.542-11.045 16.617-16.951 2.333-4.48 2.686-6.341 2.688-14.158.002-7.525-.385-9.737-2.36-13.5-3.692-7.036-6.652-10.421-12.841-14.685-13.883-9.566-30.11-13.519-56.232-13.696-27.297-.186-37.177 2.364-60.407 15.586-12.332 7.02-32.706 20.48-40.409 26.697-3.474 2.804-6.737 5.098-7.25 5.098-2.11 0-.684-6.273 3.214-14.134 3.381-6.82 5.922-10.129 13.75-17.911 11.554-11.484 22.152-18.688 40.519-27.542 17.12-8.251 28.344-11.218 45.583-12.049 10.269-.495 14.787-.212 25.317 1.584 14.292 2.437 14.443 2.403 17.686-3.955 4.233-8.297 3.477-20.634-1.733-28.267-3.043-4.459-14.402-11.714-22.27-14.224-3.025-.965-6.625-2.2-8-2.746s-9.475-1.218-18-1.495c-11.979-.388-17.509-.123-24.345 1.168-22.471 4.245-51.033 18.004-68.482 32.988-29.466 25.305-51.608 50.726-67.543 77.545-6.31 10.62-27.479 52.6-43.133 85.538-16.967 35.7-38.412 77.96-44.749 88.183-10.205 16.467-19.685 29.058-30.348 40.309l-68.876 70.572c-26.897 26.931-66.146 67.776-76.659 79.777l-9.466 10.5c-13.492 14.726-28.344 32.614-47.459 57.159l-18.476 23.427c-.57.59-2.367 2.873-3.993 5.073s-6.017 7.919-9.758 12.709c-14.139 18.103-43.662 63.401-56.257 86.314-6.662 12.121-14.424 27.785-16.454 33.205-1.076 2.875-2.38 6.025-2.896 7-5.551 10.474-13.965 35.303-18.054 53.272l-2.355 10c-4.439 18.509-4.853 21.476-4.918 35.295-.089 18.699 2.955 33.377 10.1 48.705 7.168 15.376 22.398 33.496 43.621 51.898 18.377 15.935 30.248 24.526 59 42.704 7.7 4.868 21.2 13.73 30 19.692 29.384 19.909 52.442 35.009 75.263 49.288L285.355 1294l19.238 11.976c1.599.811 6.057 3.533 9.907 6.047 7.899 5.16 34.899 21.913 44 27.302l50.5 29.448c3.575 1.925 10.55 5.847 15.5 8.715s13.275 7.475 18.5 10.238l37.5 20.242c1.346 1.011 26.684 14.28 38.5 20.161l23 11.484 18 8.818c2.475 1.135 9 4.375 14.5 7.198s17.2 8.39 26 12.37c36.066 16.308 42.943 21.592 53.357 41.001 7.752 14.446 11.275 28.049 12.689 49 1.63 24.166.379 105.913-2.075 135.5-.274 3.3-1.17 20.4-1.992 38l-2.005 36c-.282 2.2-1.177 14.125-1.99 26.5s-2.379 29.475-3.48 38c-2.4 18.585-2.569 29.007-.534 32.942 1.615 3.123 7.165 7.829 12.379 10.498 3.313 1.695 25.297 9.624 44.651 16.103 26.147 8.754 63.542 19.083 92 25.413 5.5 1.224 11.389 2.644 13.086 3.158 11.945 3.612 93.804 18.403 123.914 22.39 30.453 4.033 83.598 9.987 102.5 11.483l24.5 2.017c51.281 4.421 138.524 5.758 195.5 2.998 44.744-2.168 94.169-6.815 149.204-14.027 40.772-5.343 53.153-7.426 95.296-16.04l29.5-6.027c2.475-.505 7.65-1.811 11.5-2.901l22-5.956c15.452-4.094 23.447-6.625 55.917-17.701 19.358-6.603 22.012-7.662 36.358-14.516 6.517-3.113 8.855-4.828 11-8.069l2.725-4.116.303-42.575c.588-82.607-7.064-174.211-23.897-286.074-2.612-17.357-13.912-74.227-18.48-93-12.776-52.513-20.256-78.559-31.877-111-3.533-9.863-4.625-12.652-8.132-20.784-.78-1.806-1.417-3.707-1.417-4.225s-1.35-3.888-3-7.491-3-6.732-3-6.954c0-.923-21.192-43.592-24.782-49.899-10.164-17.852-30.727-44.565-47.883-62.202-8.095-8.324-21.123-19.552-37.438-32.269l-10.959-8.579c-5.319-4.275-29.823-19.601-44.438-27.794-9.182-5.148-29.908-15.418-38-18.831-4.4-1.855-8.362-3.668-8.805-4.028s3.319-2.095 8.361-3.856c12.772-4.46 34.557-14.54 46.444-21.491 13.38-7.823 44.886-28.905 55.77-37.318 35.855-27.714 72.147-64.679 92.719-94.438 2.912-4.213 5.056-8.263 4.765-9-.548-1.388-6.138-3.631-20.754-8.331-10.043-3.229-26.115-9.454-27.415-10.62-.51-.457 1.258-1.733 4-2.886 15.131-6.361 33.63-17.73 45.297-27.836 9.698-8.402 21.118-19.772 21.118-21.026 0-.374-4.597-2.921-10.215-5.66-8.564-4.176-29.409-17.369-42.628-26.978-5.089-3.699-22.452-20.361-30.534-29.302-18.322-20.268-36.568-54.656-49.981-94.202-3.648-10.755-10.334-34.97-18.224-66-2.447-9.625-5.449-20.308-6.671-23.74l-2.222-6.24 5.638-16.26 9.156-26.26c5.095-14.478 20.443-71.598 22.626-84.199.552-3.191 2.157-11.426 3.567-18.301s3.228-18.35 4.041-25.5l1.92-15.5c.523-2.964 1.175-13.416 2.517-40.309.918-18.393.161-56.175-1.526-76.191-4.97-58.944-28.892-152.911-50.471-198.25-3.288-6.909-5.052-7.707-9.09-4.109M1908 315.666c-11.796 1.855-25.491 6.615-36 12.512-11.23 6.302-26.73 19.956-36.125 31.822-4.137 5.226-11.364 16.874-10.776 17.368 4.816 4.05 21.087 15.599 33.901 24.061l25.183 16.645c7.941 5.258 12.604 7.648 13.198 6.767 12.149-18.006 29.768-29.841 44.427-29.841 11.715 0 23.792 4.177 34.192 11.824 12.561 9.237 18.678 23.313 16.029 36.881-2.664 13.641-11.424 24.436-25.307 31.187-4.647 2.259-8.966 4.108-9.599 4.108s-1.932.425-2.887.945c-2.148 1.169-18.609 5.118-35.307 8.47-14.155 2.842-30.727 8.394-42.354 14.189-7.132 3.555-19.667 13.136-25.363 19.385-7.018 7.7-22.212 33.509-22.212 37.73 0 1.355 1.964 2.915 6.734 5.347 3.703 1.889 11.876 6.247 18.162 9.684s11.768 6.25 12.183 6.25.904.364 1.088.81 2.583 1.935 5.333 3.31c6.565 3.284 18.046 9.623 22.73 12.549 2.052 1.282 4.182 2.331 4.733 2.331s2.09-2.144 3.418-4.765c3.699-7.3 11.397-17.013 16.983-21.428 7.317-5.784 14.872-9.261 25.636-11.797l13-3.064c1.925-.453 10.7-2.23 19.5-3.947 15.332-2.993 20.627-4.287 25-6.11 1.1-.459 4.411-1.759 7.359-2.89 7.75-2.973 21.078-9.744 25.141-12.773 23.038-17.172 37.699-39.563 43.665-66.692 2.489-11.313 2.244-32.985-.495-43.989-2.93-11.766-4.673-16.791-8.34-24.045-9.665-19.12-25.383-36.244-48.33-52.658-14.577-10.426-45.979-23.169-69.764-28.312-9.907-2.142-14.044-2.509-26.969-2.394-8.397.075-16.392.313-17.767.53m-271.696 38.825c-14.961 3.657-26.942 13.187-33.654 26.771-4.661 9.433-6.012 16.752-5.357 29.028.456 8.536.977 10.745 4.068 17.255 10.729 22.591 27.835 32.654 52.727 31.017 14.773-.972 24.686-5.272 34.026-14.759 9.907-10.061 14.841-22.556 14.871-37.659.029-14.275-5.001-26.812-15.08-37.587-6.838-7.309-16.558-12.784-25.812-14.539-7.058-1.339-19.295-1.114-25.789.473m168.029 255.379c-4.492 1.563-10.169 4.016-12.617 5.45-9.933 5.821-19.887 20.619-22.762 33.836-1.923 8.84-.8 24.07 2.274 30.844 7.02 15.471 20.809 27.691 35.591 31.541 8.382 2.183 24.511 1.91 32.476-.55 13.34-4.121 25.401-14.508 31.7-27.301 12.979-26.36 2.425-56.825-24.676-71.235-11.815-6.282-28.427-7.305-41.986-2.585m-129.128 355.024c-10.877 3.757-12.586 5.977-44.828 58.236l-13.805 22.5-50.059 81.37c-2.316 3.575-6.332 10.1-8.925 14.5l-5.624 9.5c-.5.825-3.815 6.65-7.366 12.944l-6.458 11.444 1.823 2.556c1.003 1.406 5.166 6.184 9.251 10.619 7.043 7.645 21.786 27.254 21.786 28.976 0 .442.62 1.514 1.378 2.382 1.52 1.741 16.622 27.704 16.622 28.577 0 .99 5.284 8.551 5.691 8.144.22-.219 1.256-3.984 2.302-8.366 4.836-20.246 13.55-39.891 22.621-50.996 5.183-6.344 6.217-7.34 12.504-12.038 12.386-9.255 24.398-13.242 39.898-13.242 12.408 0 19.724 1.823 28.164 7.016 6.501 4 18.486 14.53 20.442 17.961a126.36 126.36 0 0 0 3.408 5.523c1.083 1.65 4.107 7.372 6.72 12.715s5.217 9.73 5.788 9.75 2.994-3.002 5.385-6.715l5.462-8.395 49.585-75.355c1.298-2.2 7.616-11.875 14.038-21.5 19.762-29.616 31.544-48.3 33.356-52.89 2.194-5.562 2.266-16.159.15-22.11-1.853-5.211-7.385-11.329-12.749-14.098-3.84-1.982-24.423-10.902-25.157-10.902-.225 0-4.265-1.798-8.978-3.996s-12.97-5.753-18.349-7.902c-9.428-3.766-27.49-11.383-35.781-15.09-12.794-5.721-39.316-16.729-47.3-19.631-10.578-3.846-13.555-4.057-20.995-1.487m13.12 52.824c-1.872.234-5.022 2.024-7.676 4.36-9.984 8.788-9.677 22.567.653 29.265 5.68 3.683 11.822 4.39 17.541 2.02 15.516-6.431 14.393-30.871-1.624-35.319-2.045-.568-4.169-.963-4.719-.878s-2.429.333-4.175.552m65.666 36.532c-1.818 1.237-4.697 3.979-6.398 6.093-2.645 3.285-3.091 4.663-3.083 9.5.014 7.157 2.565 12.475 7.809 16.273 7.636 5.532 19.821 3.226 25.421-4.811 2.228-3.197 4.26-8.693 4.26-11.519 0-4.632-4.238-11.755-8.787-14.768-5.925-3.925-14.105-4.252-19.222-.768m-101.491 18.918c-5.091 1.896-8.24 4.664-10.414 9.155-7.242 14.959 5.755 31.028 21.638 26.751 7.979-2.148 14.204-10.065 14.254-18.128.029-4.734-4.398-13.397-8.249-16.139-3.597-2.561-12.482-3.406-17.229-1.639m66.627 35.33c-4.729 1.475-9.469 5.4-11.716 9.702-.776 1.486-1.411 5.333-1.411 8.55 0 11.022 7.426 18.28 18.636 18.217 4.738-.027 6.631-.563 9.856-2.793 11.499-7.949 11.325-24.895-.332-32.287-5.005-3.174-8.326-3.481-15.033-1.389m-101.336 17.49c-13.941 4.203-17.174 23.516-5.435 32.47 7.077 5.398 19.361 4.229 24.877-2.369 4.537-5.426 6-14.202 3.403-20.418-3.3-7.898-13.883-12.384-22.845-9.683m44.059 74.927c-12.975 4.149-21.471 13.323-28.88 31.182l-3.963 9.403c-3.732 8.373-12.007 45.633-12.007 54.064 0 2.455.438 5.245.974 6.2 1.939 3.459 9.89 24.04 14.385 37.236 9.761 28.655 25.698 84.952 38.857 137.262 1.789 7.114 3.669 12.612 4.247 12.423.868-.284 9.057-10.201 29.856-36.155 1.749-2.184 4.981-6.047 7.181-8.585l6.43-7.53 7.113-8.415 6.259-7.5c4.271-5.424 8.96-11.204 10.545-13 .971-1.1 3.09-3.791 4.709-5.98l4.151-5.5c12.456-15.679 21.39-28.076 27.005-37.472 2.316-3.876 4.591-7.498 5.054-8.048s2.326-4.6 4.141-9l4.67-11c5.22-11.424 7.88-40.661 5.477-60.199-1.191-9.69-5.29-27.868-7.016-31.121-.49-.924-2.264-4.746-3.942-8.494-3.603-8.047-6.726-12.686-8.542-12.686-.72 0-5.175 5.063-9.899 11.25-18.268 23.924-31.698 39.077-37.844 42.701-3.458 2.038-3.844 2.074-6.149.563-2.917-1.911-3.779-3.934-7.084-16.619-3.716-14.259-5.192-18.29-11.185-30.549-8.988-18.381-19.429-26.453-34.009-26.292-2.686.029-7.427.867-10.534 1.861"/>
</svg>
