<?xml version="1.0" encoding="UTF-8"?>
<!-- Generated by Pixelmator Pro 3.7.1 -->
<svg width="2592" height="1632" viewBox="0 0 2592 1632" xmlns="http://www.w3.org/2000/svg">
    <path id="Path" fill="#ffb900" fill-rule="evenodd" stroke="none" d="M 2207.5 42.376953 C 2178.310059 47.199951 2157.073975 60.572998 2141.571045 83.894043 C 2137.506104 90.008057 2127 113.130005 2127 115.960938 C 2127 116.426025 2130.261963 117.761963 2134.25 118.930054 L 2167.805908 129.171997 C 2182.735107 133.779053 2194.448975 136.901978 2194.89209 136.394043 C 2195.322021 135.901978 2196.697998 133.046997 2197.950928 130.04895 C 2204.294922 114.865967 2215.063965 105.57605 2229.384033 102.935059 C 2245.843018 99.897949 2264.832031 108.812012 2271.699951 122.796997 C 2274.039063 127.560059 2274.48999 129.735962 2274.440918 136 C 2274.322021 151.130005 2265.62793 161.291992 2241.5 174.503052 C 2198.125 198.254028 2186.456055 209.583984 2177.61792 236.525024 C 2174.48999 246.062012 2171.917969 258.831055 2172.990967 259.494995 C 2173.410889 259.754028 2183.373047 262.025024 2195.126953 264.540039 L 2226.368896 271.604004 C 2231.797119 272.973999 2236.354004 273.960938 2236.49707 273.797974 C 2236.639893 273.63501 2237.51709 270.845947 2238.447998 267.603027 C 2241.681885 256.339966 2245.928955 248.911987 2253.419922 241.416016 C 2260.033936 234.797974 2261.863037 233.666016 2281.2229 224.213989 C 2305.558105 212.332031 2310.061035 209.567017 2319.76001 200.546021 C 2348.333008 173.973022 2355.714111 127.800049 2336.793945 94 C 2322.449951 68.375977 2298.386963 53.079956 2259.511963 44.876953 C 2242.576904 41.303955 2220.437012 40.239014 2207.5 42.376953 M 64.247002 87.332031 C 59.735001 88.968994 55.064999 93.637939 52.589001 98.987061 L 50.5 103.5 L 50.5 577 L 52.303001 1055.171021 C 54.493999 1060.849976 61.348 1067.44104 66.652 1068.970947 C 72.580002 1070.68103 1044.177979 1069.964966 1044.75 1068.25 C 1044.979004 1067.562988 1044.706055 1067 1044.141968 1067 C 1043.33606 1067 980.565002 1025.713013 953.127991 1007.137024 L 947.757019 1003.5 L 522.971008 1003 L 98.185997 1002.5 L 94.343002 999.405029 C 92.228996 997.703003 89.962997 994.778015 89.306 992.905029 C 88.389 990.288025 88.099998 890.78302 88.056 563.135986 L 88 136.771973 L 90.068001 133.135986 C 91.205002 131.135986 93.291 128.64502 94.704002 127.599976 C 97.464996 125.55896 101.272003 125.625 174.5 128.979004 L 221.5 130.964966 L 258 132.519043 L 317.5 135.003052 L 403.5 138.530029 L 438.5 140.000977 L 472.5 141.468994 L 518.5 143.501953 L 541.5 144.501953 L 567.5 145.521973 L 603 147 L 635.5 148.479004 L 709 151.501953 L 732.5 152.501953 L 757.5 153.501953 L 803.5 155.496948 L 827.5 156.514038 L 897 159.510986 L 916.5 160.527954 C 920.900024 160.79895 936.875 161.460938 952 161.999023 L 1014.5 164.499023 L 1083 167.494995 L 1134 169.491943 L 1159 170.529053 L 1204 172.583008 C 1301.42395 176.860962 1294.756958 176.428955 1297.751953 178.651978 C 1302.269043 182.003052 1303.156982 186.588013 1302.810059 204.750977 C 1302.640015 213.689941 1302.618042 221.001953 1302.760986 221.000977 C 1302.904053 221 1305.744995 219.141968 1309.072021 216.869995 C 1312.399048 214.598022 1320.529053 209.987061 1327.136963 206.619995 L 1339.151978 200.5 L 1339.041992 177.5 C 1338.942017 156.418945 1338.76001 154.143066 1336.864014 150.223022 C 1334.546997 145.432007 1329.838013 141.387939 1324.94397 139.984009 C 1323.150024 139.468994 1310.615967 138.582031 1297.090942 138.010986 L 1238 135.468994 L 1144 131.500977 L 1077.5 128.501953 C 1073.650024 128.208008 1054.300049 127.296997 1034.5 126.477051 L 897.5 120.515015 L 824.5 117.479004 L 764 114.990967 L 717.5 113.026978 L 684 111.532959 L 662.5 110.537964 L 635.5 109.487061 L 588 107.477051 L 469.5 102.501953 L 307.5 95.531006 L 250.5 92.995972 L 179.5 89.968994 C 79.211998 85.527954 69.813004 85.312988 64.247002 87.332031 M 2005.5 97.078003 L 1979 116.738037 C 1930.925049 152.364014 1888.22998 193.907959 1857.214966 235.240967 C 1839.812012 258.432983 1828.389038 276.19104 1812.021973 305.5 L 1804.524048 318.773926 C 1804.392944 318.924072 1797.359009 317.256958 1788.892944 315.06897 C 1760.457031 307.719971 1738.322021 305.019043 1706.5 305.019043 C 1676.204956 305.018066 1651.442017 308.085938 1622.103027 315.473999 L 1607.555054 319 C 1607.255005 319 1603.92395 312.812988 1600.152954 305.25 C 1589.301025 283.487061 1571.718018 254.974976 1554.05603 230.5 C 1525.812012 191.359985 1484.355957 148.519043 1446 118.834961 C 1428.962036 105.647949 1405.812988 89 1404.516968 89 C 1402.915039 89 1395.880981 105.408936 1389.514038 124 C 1382.912964 143.275024 1372 186.562988 1372 193.473022 C 1372 194.374023 1375.295044 194.878052 1383.75 195.269043 C 1409.750977 196.470947 1431.927979 206.145996 1441.401978 220.418945 C 1448.866943 231.665039 1450.750977 243.405029 1447.432983 257.994995 L 1445.865967 264.884033 L 1450.130981 268.692017 C 1462.734009 279.945068 1468.375977 287.687012 1472.107056 298.849976 C 1475.28894 308.368042 1474.506958 320.980957 1470.150024 330.439941 C 1468.390991 334.258057 1465.097046 339.838989 1462.828003 342.843994 C 1460.041992 346.533936 1458.994995 348.713013 1459.602051 349.560059 C 1471.562012 366.251953 1473.317993 370.883057 1473.416016 386 C 1473.478027 395.445068 1473.108032 398.512939 1471.349976 403.167969 C 1465.583984 418.432983 1451.245972 431.356934 1435.535034 435.448975 C 1424.91394 438.214966 1408.801025 437.015991 1396.026001 432.509033 C 1382.724976 427.81604 1373.503052 432.963013 1373.621948 445.012939 C 1373.651978 448.045044 1374.178955 451.467041 1374.795044 452.615967 C 1375.411011 453.765015 1379.052002 456.355957 1382.886963 458.370972 C 1396.927002 465.749023 1407.73999 477.322998 1412.118042 489.657959 C 1415.36499 498.80896 1415.748047 511.714966 1413.062012 521.505005 C 1410.11499 532.24707 1406.093018 538.906982 1396.535034 548.870972 C 1387.905029 557.866943 1380.203003 563.762939 1370.250977 568.99292 C 1364.698975 571.911011 1363.880005 572.736084 1362.906006 576.388916 C 1355.848999 602.86499 1342.767944 628.65802 1325 651.133972 C 1311.93396 667.661987 1289.686035 685.406006 1266.457031 697.822998 C 1250.524048 706.341003 1250.95105 704.708008 1261.937012 715.098022 C 1275.52002 727.942017 1299.662964 744.43103 1308.5 746.898987 C 1311.482056 747.731018 1311.46106 747.754028 1305 750.708008 C 1301.425049 752.34198 1292.088013 755.814026 1284.25 758.422974 C 1276.411987 761.031982 1270 763.591003 1270 764.111023 C 1270 765.426025 1287.728027 783.14801 1298.108032 792.208984 C 1327.646973 817.995972 1378.531982 850.984985 1417.373047 869.528992 C 1432.906982 876.945984 1459.613037 887.89801 1468.25 890.393982 C 1471.411987 891.307983 1474 892.338013 1474 892.682007 C 1474 893.658997 1448.81604 892.252014 1435.5 890.530029 C 1413.114014 887.635986 1382.504028 881.192993 1326.291992 867.541992 L 1168.233032 827.476013 C 1168.087036 827.379028 1170.974976 824.195007 1174.651978 820.400024 C 1182.839966 811.950012 1189.963013 801.257996 1193.396973 792.263977 C 1194.817017 788.544006 1198.920044 776.049988 1202.514038 764.5 C 1219.240967 710.742981 1244.58606 637.268005 1265.427979 582.106934 C 1269.042969 572.541992 1272 564.090088 1272 563.325928 C 1272 562.189941 1273.86499 562.052002 1282.25 562.572021 C 1296.879028 563.478027 1319.307007 560.918945 1335.404053 556.50708 C 1363.536987 548.796021 1385.984985 531.734009 1389.996948 515.012939 C 1392.546997 504.380981 1388.206055 491.078979 1380.426025 485.69104 C 1375.123047 482.016968 1370.635986 481.052979 1358.709961 481.023926 C 1344.85498 480.98999 1340.327026 478.515015 1335.927979 468.571045 C 1334.213013 464.692017 1333.916016 462.687012 1334.457031 458.606934 C 1336.345947 444.359009 1350.881958 422.417969 1364.014038 413.990967 C 1369.819946 410.265015 1379.572021 407 1384.894043 407 C 1386.937988 407 1394.885986 408.37793 1402.555054 410.062012 C 1420.125 413.921021 1427.006958 414.070068 1434.166016 410.749023 C 1445.831055 405.337036 1450.535034 397.221924 1449.802979 383.773926 C 1449.275024 374.096924 1447.754028 370.637939 1441.145996 364.098022 C 1433.975952 357.001953 1419.088989 350.768066 1401.39502 347.452026 C 1388.229004 344.984985 1371.641968 347.287964 1357.484985 353.549072 C 1351.046997 356.395996 1337.469971 361 1335.510986 361 C 1333.600952 361 1334.911987 356.062012 1338.03894 351.477051 C 1343.31604 343.741943 1355.352051 334.19397 1363.938965 330.93103 C 1366.484009 329.963989 1372.322021 328.624023 1376.911011 327.953003 C 1384.093994 326.901978 1386.802979 326.977051 1396.378052 328.489014 C 1402.494995 329.454956 1412.557007 331.765015 1418.739014 333.62207 C 1424.921021 335.479004 1431.391968 337 1433.120972 337 C 1445.900024 337 1455.428955 314.113037 1448.598999 299.822998 C 1446.015015 294.416992 1438.630005 287.624023 1431.637939 284.223022 C 1421.369995 279.227051 1411.838989 277.629028 1392 277.575928 C 1375.203003 277.531006 1374.178955 277.644043 1366.5 280.395996 C 1350.847046 286.005981 1332.650024 296.156982 1315.894043 308.62793 C 1310.444946 312.682007 1305.708008 316 1305.365967 316 C 1304.041016 316 1306.213013 307.379028 1308.680054 302.846924 C 1312.020996 296.707031 1324.369995 284.37207 1333.420044 278.13501 C 1348.511963 267.733032 1364.168945 260.613037 1377.807983 257.948975 C 1383.692993 256.800049 1387.686035 256.834961 1418.458008 258.310059 C 1422.340942 258.495972 1422.452026 258.405029 1424.296997 253.5 C 1426.754028 246.967041 1426.302979 237.231934 1423.359985 233.260986 C 1419.828979 228.495972 1413.428955 224.328003 1405.322998 221.514038 C 1398.526001 219.154053 1395.467041 218.730957 1382 218.287964 C 1364.55896 217.713989 1358.88501 218.473999 1347.357056 222.928955 C 1312.090942 236.55603 1278.301025 267.577026 1253.602051 309 C 1245.016968 323.396973 1242.293945 328.706055 1226.675049 361.5 C 1214.232056 387.624023 1192.149048 431.338013 1185.755981 442.5 C 1178.703003 454.814941 1169.812988 468.283936 1163.645996 476 C 1160.348999 480.125 1137.109009 504.199951 1112.001953 529.5 C 1042.744995 599.288086 1030.212036 613.004028 990.929016 662 C 946.117004 717.893982 919.067017 761.422974 901.135986 806.5 C 885.711975 845.271973 880.861023 879.791016 887.583984 902.934021 C 894.68103 927.362 918.120972 953.405029 956.051025 979.002014 L 1055.814941 1045.03894 L 1131.040039 1091.98999 C 1196.891968 1131.500977 1271.410034 1171.495972 1336 1201.995972 C 1358.652954 1212.692993 1366.980957 1217.912964 1373.982056 1225.802002 C 1388.834961 1242.53894 1392.734985 1264.610962 1391.628052 1325.67395 C 1390.760986 1373.517944 1389.630981 1394.671021 1384.447998 1460 L 1379.401001 1518.08606 C 1378.515991 1526.031982 1380.234009 1528.823975 1388.765015 1533.307007 C 1396.807007 1537.532959 1433.185059 1549.802002 1457.5 1556.48999 C 1565.171021 1586.102051 1696.599976 1603.005005 1819.140991 1602.998047 C 1851.465942 1602.996948 1878.784058 1601.958984 1912 1599.472046 C 2011.115967 1592.04895 2095.283936 1576.371948 2168.5 1551.697998 C 2193.301025 1543.339966 2203.910889 1538.718994 2208.01001 1534.489014 L 2211.299072 1531.097046 L 2211.150879 1491.297974 C 2211.070068 1469.409058 2210.531006 1440.925049 2209.952881 1428 C 2207.886963 1381.744019 2199.625 1299.553955 2194.021973 1269.5 C 2178.563965 1186.588013 2162.166992 1123.228027 2145.240967 1081 C 2134.350098 1053.82605 2122.37207 1029.370972 2112.768066 1014.698975 C 2083.8479 970.518005 2040.48999 933.607971 1988.578003 908.981018 C 1981.935059 905.828979 1973.359009 902.198975 1969.519043 900.913025 C 1963.016968 898.734009 1962.743042 898.528992 1965.519043 897.90802 C 1970.505005 896.794006 1997.30603 884.526978 2011.305054 876.950989 C 2035.817993 863.684998 2069.822998 838.094971 2090.969971 817 C 2111.299072 796.719971 2137.163086 764.705017 2134.912109 762.606995 C 2134.686035 762.395996 2125.949951 758.963013 2115.5 754.978027 C 2096.468994 747.721985 2092.840088 746 2096.577881 746 C 2099.824951 746 2111.802979 739.760986 2123 732.237 C 2132.968018 725.539001 2152.162109 708.921021 2152.795898 706.440002 C 2152.958984 705.802002 2151.697998 704.703003 2149.99292 703.997009 C 2148.288086 703.291016 2141.405029 699.508972 2134.697021 695.593994 C 2101.194092 676.038025 2077.853027 651.518982 2061.189941 618.377991 C 2049.657959 595.440918 2041.280029 570.677002 2030.020996 526.241943 L 2022.860962 497.984009 L 2026.052979 489.741943 C 2040.823975 451.609985 2053.302979 404.470947 2058.943115 365.5 C 2065.375977 321.052979 2065.001953 269.459961 2057.912109 223.5 C 2052.023926 185.324951 2037.850952 133.800049 2024.593018 102.371948 C 2022.011963 96.251953 2019.359009 90.551025 2018.699951 89.703979 C 2017.66394 88.375 2015.858032 89.384033 2005.5 97.078003 M 354.299011 191.25 C 350.028015 195.939941 350 196.264038 350 241.533936 L 350 285.199951 L 353.399994 288.599976 L 356.799988 292 L 444.200012 292 L 447.630005 288.570068 L 451.059998 285.140015 L 450.779999 240.13501 L 450.5 195.130005 L 447.562988 192.064941 L 444.626007 189 L 356.348999 189 Z M 565.922974 198.922974 L 563 201.845947 L 563 292.846924 L 565.588989 295.922974 L 568.177979 299 L 658.197998 299 L 661.098999 295.894043 L 664 292.787964 L 664 247.828979 C 664 218.905029 663.632996 202.182007 662.969971 200.945068 C 660.396973 196.135986 659.010986 196 612.473022 196 L 568.846008 196 Z M 819.276978 203 C 782.192017 203.498047 782.044983 203.508057 779.776978 205.776978 L 777.5 208.053955 L 777.221008 252.835938 L 776.940979 297.616943 L 779.221008 300.98999 C 780.473999 302.844971 782.625 304.618042 784 304.93103 C 785.375 305.244019 805.72699 305.5 829.226013 305.5 L 871.952026 305.5 L 874.726013 302.728027 L 877.5 299.956055 L 877.780029 254.985962 C 878.020996 216.172974 877.848999 209.609985 876.526978 207.052002 C 874.142029 202.439941 872.04303 202.291016 819.276978 203 M 995.367004 208.771973 C 994.19397 209.723022 992.731018 211.483032 992.117004 212.68396 C 990.633972 215.583984 990.552002 299.416992 992.028992 303.651978 C 994.242004 310.000977 994.231995 310 1042.328003 310 L 1085.847046 310 L 1088.922974 307.411011 L 1092 304.822021 L 1092 212.845947 L 1089.077026 209.922974 L 1086.154053 207 L 1041.827026 207.021973 C 1001.338013 207.042969 997.315002 207.19397 995.367004 208.771973 M 2402 264.97998 C 2392.89502 266.168945 2380.74707 270.231934 2371.858887 275.062012 C 2358.5271 282.307007 2343.166992 297.020996 2334.647949 310.706055 L 2332.030029 314.911987 L 2360.062012 333.706055 L 2389.60498 353.5 C 2390.768066 354.269043 2391.603027 353.807983 2393.227051 351.5 C 2397.23999 345.793945 2408.518066 335.390991 2413.064941 333.199951 C 2423.960938 327.949951 2435.495117 328.322998 2447.927002 334.325928 C 2466.131104 343.115967 2473.24292 360.907959 2465.135986 377.375 C 2457.860107 392.156006 2445.351074 398.797974 2414.075928 404.48999 C 2374.896973 411.619995 2355.974121 424.44397 2339.476074 455.045044 L 2335.174072 463.023926 L 2339.336914 465.828979 C 2341.626953 467.373047 2352.5 473.505981 2363.5 479.459961 L 2388.288086 493.270996 C 2390.920898 494.912964 2393.236084 496.087036 2393.430908 495.879028 C 2393.625977 495.671021 2396.539063 491.374023 2399.903076 486.329956 C 2411.087891 469.562988 2416.060059 467.062988 2451.427979 460.420044 C 2481.00293 454.865967 2493.108887 450.230957 2506.831055 439.210938 C 2527.511963 422.601074 2539.287109 399.737061 2540.670898 373.5 C 2542.016113 347.990967 2533.826904 327.86499 2513.964111 307.865967 C 2493.582031 287.343994 2466.551025 272.599976 2439.096924 267.028076 C 2427.711914 264.717041 2411.058105 263.797974 2402 264.97998 M 2180.368896 296.493042 C 2169.625977 298.828979 2160.146973 305.031982 2154.720947 313.276978 C 2141.444092 333.452026 2144.708984 357.295044 2162.687012 371.447998 C 2170.383057 377.506958 2177.465088 380.099976 2188.054932 380.739014 C 2201.894043 381.573975 2211.827881 377.87207 2221.304932 368.348999 C 2230.709961 358.898926 2235.50293 344.186035 2233.205078 331.823975 C 2229.870117 313.893066 2216.094971 299.837036 2198.200928 296.10498 C 2191.595947 294.728027 2188.137939 294.802979 2180.368896 296.493042 M 356.967987 355.287964 C 355.127991 355.765015 353.148987 357.348022 351.966003 359.287964 C 350.098999 362.349976 350.007996 364.554932 350.026001 406.5 C 350.04599 454.369995 349.880005 452.916016 355.649994 455.86499 C 358.569 457.356934 443.173004 457.512939 445.94101 456.031982 C 451.042999 453.301025 451 453.716064 451 406.843018 C 451 381.483032 450.598999 362.074951 450.045013 360.616943 C 449.519012 359.234985 447.851013 357.293945 446.338013 356.302002 C 443.799011 354.639038 440.375 354.5 401.799988 354.5 C 378.816986 354.5 358.643005 354.85498 356.967987 355.287964 M 565.635986 363.635986 L 563 366.272949 L 563 458.197998 L 566.106018 461.098999 L 569.211975 464 L 658.153992 464 L 661.077026 461.077026 L 664 458.154053 L 664 366.845947 L 661.077026 363.922974 L 658.153992 361 L 568.27301 361 Z M 783.122986 367.589966 C 776.851013 370.227051 777 368.998047 777 418.207031 L 777 462.968018 L 779.916992 466.234009 L 782.833984 469.5 L 826.111023 469.791016 C 857.713989 470.004028 870.156982 469.762939 872.241028 468.900024 C 877.96698 466.528076 878 466.238037 878 417.564941 L 878 373.031982 L 875.083984 369.768066 L 872.16803 366.505005 L 829.078979 366.445068 C 797.596008 366.401001 785.21698 366.709961 783.122986 367.589966 M 996.5 372.161011 C 990.877014 375.25293 991.046021 373.703979 991.021973 422.234009 L 991 466.968018 L 993.916992 470.234009 L 996.833984 473.5 L 1040.134033 473.781006 C 1071.475952 473.984985 1084.213989 473.73999 1086.256958 472.894043 C 1092.125977 470.462036 1092 471.553955 1092 423.228027 C 1092 375.932983 1091.871948 374.606934 1087.055054 372.030029 C 1084.311035 370.561035 999.184998 370.68396 996.5 372.161011 M 2321 502.035034 C 2308.310059 504.69104 2295.62793 515.112061 2289.725098 527.734009 C 2286.799072 533.98999 2286.561035 535.291016 2286.572021 545 C 2286.583008 554.279053 2286.897949 556.18103 2289.282959 561.353027 C 2296.603027 577.22998 2307.691895 585.547974 2324.76001 587.965088 C 2338.293945 589.88208 2352.073975 585.198975 2361.594971 575.447021 C 2374.308105 562.425049 2377.465088 542.688965 2369.452881 526.313965 C 2362.868896 512.856934 2347.547119 502.449951 2333 501.554932 C 2328.875 501.301025 2323.475098 501.516968 2321 502.035034 M 356.388 520.984985 C 355.22699 521.452026 353.313995 523.057007 352.138 524.552002 C 350.026001 527.237061 350 527.815918 350 572.234009 L 350 617.197998 L 353.105988 620.098999 L 356.212006 623 L 445.153992 623 L 448.076996 620.077026 L 451 617.153992 L 451 527.031982 L 448.082001 523.765991 L 445.165009 520.5 L 401.832001 520.317993 C 378 520.218018 357.549988 520.518066 356.388 520.984985 M 569 526.10791 C 567.625 526.646973 565.723022 528.081055 564.771973 529.293945 C 563.192993 531.310059 563.04303 535.439941 563.021973 577.234009 L 563 622.968018 L 565.762024 626.059998 L 568.525024 629.151978 L 612.828979 629.075989 C 641.14502 629.026978 657.827026 628.627991 659.05603 627.969971 C 663.869019 625.393982 664 624.047974 664 577 C 664 528.351074 663.986023 528.237061 657.880981 526.10791 C 653.794983 524.684082 572.630005 524.682983 569 526.10791 M 781.367004 532.771973 C 780.19397 533.723022 778.731018 535.48291 778.117004 536.684082 C 776.677979 539.49707 776.546997 624.677002 777.974976 628.434021 C 778.510986 629.844971 780.424011 631.89801 782.224976 632.995972 C 785.359985 634.906982 787.286987 634.992981 827.299988 634.995972 C 873.221985 635 873.408997 634.97699 876.513 628.974976 C 877.854004 626.382019 878.021973 619.995972 877.780029 580.905029 L 877.5 535.825928 L 874.69397 533.413086 L 871.888 531 L 827.69397 531.021973 C 787.330994 531.042969 783.315002 531.19397 781.367004 532.771973 M 355.348999 687.176025 C 354.165985 687.749023 352.451996 689.630981 351.540985 691.359009 C 350.057007 694.172974 349.915985 699.10199 350.191986 738.684998 L 350.5 782.869995 L 353.446991 785.945007 L 356.393005 789.02002 L 401.407013 788.76001 L 446.42099 788.5 L 448.709991 785.10199 L 451 781.703979 L 451 737.786011 C 451 691.984009 450.95401 691.461975 446.602997 687.825012 C 444.665985 686.205017 441.071014 686.06897 401 686.101013 C 372.973999 686.122986 356.734985 686.505981 355.348999 687.176025 M 565.922974 693.922974 L 563 696.846008 L 563 787.968018 L 565.916992 791.234009 L 568.833984 794.5 L 612.133972 794.781006 C 641.328979 794.971008 656.278992 794.713013 658.026978 793.989014 C 664.002014 791.513977 664 791.528015 664 742.018982 L 664 696.846008 L 661.077026 693.922974 L 658.153992 691 L 568.846008 691 Z M 782.109985 696.395996 C 777.101013 699.171997 777.072998 699.442017 777.034973 746.299988 C 776.997009 793.414001 777.094971 794.375 782.202026 797.107971 C 785.544983 798.896973 867.393982 799.221985 871.684021 797.463013 C 878.109985 794.828003 878.109985 794.823975 877.789001 745.390991 L 877.5 700.833984 L 874.234009 697.916992 L 870.968018 695 L 827.734009 695.034973 C 793.77002 695.062988 783.987976 695.35498 782.109985 696.395996 M 2209.815918 793.520996 C 2202.724121 795.794006 2198.100098 801.14502 2186.501953 820.5 L 2172.483887 843.5 L 2125.625977 920.239014 L 2109.513916 947 C 2106.336914 952.224976 2102.823975 958.379028 2101.706055 960.674988 L 2099.674072 964.849976 L 2106.470947 972.174988 C 2115.86499 982.299988 2130.654053 1004.401978 2140.14502 1022.5 C 2142.971924 1027.891968 2145.062988 1030.899048 2145.361084 1030 C 2145.633057 1029.175049 2147.259033 1023.353027 2148.971924 1017.062012 C 2156.586914 989.104004 2170.779053 971.278992 2191.719971 963.372986 C 2197.801025 961.077026 2199.638916 960.848999 2209.553955 961.15802 C 2220.034912 961.484009 2221.010986 961.700989 2228.398926 965.353027 C 2241.462891 971.809021 2250.608887 982.315979 2257.053955 998.268982 C 2258.334961 1001.442017 2259.8479 1003.883972 2260.415039 1003.695007 C 2261.759033 1003.247009 2275.225098 983.56897 2296.97998 950.262024 L 2329.839111 900.116028 C 2338.297119 887.255005 2346.059082 874.880005 2347.086914 872.616028 C 2351.156006 863.656006 2348.361084 849.846985 2341.270996 843.880981 C 2337.599121 840.791016 2323.35791 834.330994 2279.800049 815.992004 L 2242.5 800.073975 C 2226.428955 792.442993 2218.278076 790.807983 2209.815918 793.520996 M 2215.897949 838.27002 C 2211.086914 841.484009 2208.791992 846.375 2209.304932 852.323975 C 2210.023926 860.669983 2215.603027 866.036011 2223.753906 866.221985 C 2239.61792 866.583008 2246.135986 846.151001 2232.759033 837.994995 C 2228.138916 835.177979 2220.335938 835.304993 2215.897949 838.27002 M 353.399994 854.400024 L 350 857.799988 L 350 901.853027 C 350 931.39801 350.356995 946.690002 351.084991 948.288025 C 353.673004 953.966003 353.964996 954 400.970001 954 C 428.660004 954 444.821014 953.630981 446.054993 952.969971 C 450.867004 950.395996 451 949.026978 451 902.271973 C 451 863.252014 450.819 858.174011 449.354004 855.973022 C 445.940002 850.846008 447.447998 851 400.709015 851 L 356.799988 851 Z M 570 855.703979 C 569.174988 856.004028 567.263 857.403015 565.75 858.812012 L 563 861.374023 L 563.021973 906.937012 C 563.04303 948.596985 563.192017 952.682983 564.771973 954.632996 C 568.250977 958.927979 569.070007 959 614.53302 959 L 658.197998 959 L 661.098999 955.893982 L 664 952.788025 L 664 907.617004 C 664 867.473999 663.817993 862.185974 662.369019 860.117004 C 658.908997 855.177002 657.112 854.994019 612.781982 855.078979 Z M 783.388 859.940002 C 782.22699 860.43103 780.314026 862.057007 779.138 863.552002 C 777.028015 866.234985 777 866.838013 777 910.200989 C 777 955.942993 777.070007 956.747009 781.367004 960.228027 C 783.315979 961.80603 787.35498 961.95697 828.161011 961.978027 L 872.822021 962 L 875.312012 959.041992 C 878.085999 955.744019 879.603027 948.021973 878.47998 942.908997 C 878.096985 941.164978 876.312988 937.208984 874.515015 934.119019 C 863.059021 914.421021 857.68103 890.685974 859.872986 869.5 C 860.385986 864.549988 860.646973 860.242981 860.453979 859.927979 C 859.866028 858.971008 785.651978 858.982971 783.388 859.940002 M 2275.052979 865.226013 C 2266.186035 869.969971 2263.854004 879.812012 2269.618896 888.158997 C 2276.136963 897.596985 2290.815918 896.08197 2296.014893 885.434021 C 2298.466064 880.413025 2298.483887 877.661011 2296.095947 872.405029 C 2292.438965 864.351013 2282.821045 861.070984 2275.052979 865.226013 M 2189.98999 882.25 C 2184.312012 886.11499 2182.5 889.440002 2182.5 896 C 2182.5 902.245972 2184.144043 905.525024 2189.147949 909.260986 C 2195.562012 914.049988 2206.659912 911.52301 2211.155029 904.25 C 2214.008057 899.632996 2214.12207 892.627014 2211.418945 887.921997 C 2209.065918 883.822998 2202.074951 880 2196.936035 880 C 2194.806885 880 2191.923096 880.934021 2189.98999 882.25 M 2243 911.161987 C 2241.018066 912.487976 2238.449951 915.620972 2237.079102 918.387024 C 2234.853027 922.875 2234.75708 923.643982 2235.891113 927.88501 C 2237.929932 935.515015 2243.523926 940 2251 940 C 2261.716064 940 2269.185059 929.692017 2265.799072 919.575989 C 2262.804932 910.627991 2250.558105 906.107971 2243 911.161987 M 2161.830078 925.026978 C 2153.738037 929.302002 2150.489014 940.038025 2155.180908 947 C 2158.589111 952.057007 2163.343018 954.242981 2169.486084 953.578003 C 2175.085938 952.971985 2178.406006 950.911011 2181.839111 945.90802 C 2185.146973 941.088013 2184.532959 933.210022 2180.522949 929.023987 C 2174.745117 922.992981 2168.291992 921.612976 2161.830078 925.026978 M 2199.763916 984.995972 C 2188.086914 988.512024 2177.803955 1002.390015 2171.605957 1023 C 2168.291016 1034.021973 2164 1055.718994 2164 1061.454956 C 2164 1064.140991 2165.043945 1068.262939 2166.601074 1071.720947 C 2171.280029 1082.113037 2176.659912 1097.302979 2182.842041 1117.57605 C 2192.187012 1148.218018 2193.574951 1153.234009 2202.010986 1186.855957 C 2209.352051 1216.116943 2210.47998 1220 2211.324951 1218.916992 C 2214.715088 1214.563965 2242.013916 1181.207031 2264.541016 1153.889038 C 2290.624023 1122.258057 2301.843994 1104.984985 2306.851074 1088.754028 C 2310.126953 1078.135986 2311.590088 1058.536987 2310.168945 1044.332031 C 2309.518066 1037.824951 2308.14502 1029.284058 2307.118896 1025.354004 C 2304.72998 1016.205017 2299.468018 1004.781006 2296.274902 1001.812012 L 2293.788086 999.5 L 2288.762939 1005 C 2285.999023 1008.025024 2279.346924 1016.380005 2273.981934 1023.565979 C 2258.168945 1044.744019 2250.197998 1049.553955 2247.14502 1039.758057 C 2246.585938 1037.965942 2245.016113 1032 2243.655029 1026.5 C 2240.38501 1013.286011 2237.738037 1006.452026 2233.123047 999.312012 C 2229.016113 992.95697 2223.299072 987.857971 2217.620117 985.486023 C 2213.823975 983.900024 2204.274902 983.638 2199.763916 984.995972 M 680.955994 1029.890015 C 676.80603 1034.040039 676.791992 1039.946045 680.922974 1044.077026 L 683.846008 1047 L 764.888 1047 L 767.505981 1044.748047 C 769.247986 1043.25 770.307983 1041.123047 770.674011 1038.390015 C 771.153015 1034.823975 770.827026 1033.838013 768.195007 1030.891968 L 765.166016 1027.5 L 724.539001 1027.217041 L 683.911011 1026.935059 Z"/>
</svg>
