<?xml version="1.0" standalone="no"?>
<!DOCTYPE svg PUBLIC "-//W3C//DTD SVG 20010904//EN"
 "http://www.w3.org/TR/2001/REC-SVG-20010904/DTD/svg10.dtd">
<svg version="1.0" xmlns="http://www.w3.org/2000/svg"
 width="800.000000pt" height="500.000000pt" viewBox="0 0 800.000000 500.000000"
 preserveAspectRatio="xMidYMid meet">

<g transform="translate(0.000000,500.000000) scale(0.100000,-0.100000)"
fill="#000000" stroke="none">
<path d="M0 2500 l0 -2500 4000 0 4000 0 0 2500 0 2500 -4000 0 -4000 0 0
-2500z m7022 2263 c129 -47 201 -133 202 -242 1 -118 -56 -196 -189 -256 -76
-35 -107 -64 -125 -121 -10 -29 -16 -34 -43 -33 -18 0 -63 8 -102 18 l-70 17
3 34 c9 103 58 163 184 226 93 47 108 63 108 118 0 45 -37 76 -92 76 -32 0
-47 -7 -72 -32 -18 -18 -35 -39 -37 -47 -4 -12 -20 -11 -95 8 -120 30 -117 28
-99 82 28 80 92 140 185 170 43 14 181 3 242 -18z m-6621 -130 c3 -64 -3
-2848 -6 -2851 -2 -3 -16 -1 -30 2 -35 9 -71 49 -79 87 -11 56 -7 2661 4 2701
6 20 22 46 37 58 32 25 73 27 74 3z m659 2 c444 -21 703 -33 1395 -60 1162
-47 1749 -76 1775 -88 23 -11 25 -17 25 -82 l0 -70 -41 -22 -42 -23 -6 45 c-5
27 -14 48 -24 54 -9 4 -107 11 -217 15 -110 3 -294 11 -410 16 -334 16 -1097
48 -1645 70 -628 25 -1116 48 -1195 55 -54 5 -63 4 -80 -15 -20 -22 -20 -45
-20 -1264 0 -1172 1 -1243 18 -1269 l17 -27 933 -1 c512 -1 1078 -2 1257 -3
l325 -1 45 -36 c25 -20 81 -60 124 -90 l79 -54 -38 -7 c-21 -5 -670 -7 -1442
-6 -1235 3 -1405 5 -1413 18 -11 16 -14 2817 -4 2844 8 21 178 21 584 1z
m3473 -31 c122 -63 321 -290 453 -519 61 -106 59 -105 217 -80 112 18 212 14
331 -12 47 -10 75 -12 90 -5 11 5 42 48 68 94 134 242 430 538 538 538 53 0
66 -24 106 -195 33 -142 38 -179 42 -327 3 -125 0 -190 -12 -265 -19 -114 -58
-272 -81 -326 -21 -52 -19 -73 21 -210 67 -232 138 -342 267 -416 31 -18 57
-37 57 -42 0 -23 -23 -50 -64 -74 -59 -35 -65 -52 -22 -70 19 -8 37 -19 40
-24 7 -11 -147 -185 -203 -230 -23 -18 -81 -57 -128 -85 -129 -78 -130 -88
-20 -150 82 -45 204 -151 260 -223 131 -171 230 -477 286 -889 25 -183 41
-397 41 -567 l0 -128 -44 -19 c-76 -34 -425 -117 -581 -139 -397 -55 -655 -54
-1060 4 -253 37 -702 144 -744 179 -15 12 -12 108 9 371 5 66 9 190 9 275 0
160 -9 211 -45 251 -10 11 -113 67 -228 124 -294 145 -481 254 -771 449 -254
171 -378 264 -396 298 -5 10 -7 34 -3 53 6 33 4 36 -30 50 -22 10 -36 22 -36
33 0 62 143 364 244 515 68 103 230 287 463 528 l180 186 108 214 c133 265
179 336 263 405 111 91 211 114 315 70 32 -13 37 -19 37 -48 0 -48 -13 -57
-66 -47 -49 9 -117 -1 -163 -26 -30 -15 -111 -99 -111 -115 0 -19 30 -10 91
30 62 40 114 60 157 60 47 0 113 -23 142 -50 36 -33 38 -67 9 -99 -17 -18 -28
-22 -53 -17 -17 4 -59 9 -94 13 -54 5 -69 2 -117 -22 -56 -27 -84 -58 -65 -70
6 -4 37 3 70 14 33 12 77 21 98 21 137 0 225 -101 147 -168 -27 -22 -34 -24
-89 -17 -90 11 -115 8 -151 -19 -39 -30 -65 -82 -65 -129 0 -43 12 -53 75 -60
81 -8 111 -73 64 -138 -37 -53 -84 -69 -276 -95 -58 -8 -74 -43 -188 -389 -88
-267 -113 -331 -136 -352 -49 -46 -65 -40 391 -149 297 -71 410 -88 410 -62 0
34 -52 52 -206 74 -38 5 -202 139 -257 209 -44 57 -47 80 -12 89 14 4 25 10
25 15 0 5 -22 29 -48 53 -27 23 -56 55 -66 70 -20 31 -31 20 100 96 105 61
139 107 185 251 21 66 29 78 71 108 51 37 88 100 88 151 0 23 -13 46 -50 88
-52 60 -64 100 -35 124 11 9 22 9 51 0 20 -7 59 -10 86 -8 41 4 57 12 86 42
40 40 38 23 31 199 -1 17 4 50 11 72 17 54 6 107 -30 149 -18 20 -30 45 -30
62 0 97 -51 154 -154 174 l-66 12 0 47 c0 40 5 67 25 157 15 66 73 91 138 58z
m-2903 -264 c17 -11 26 -139 15 -226 l-6 -54 -112 0 c-171 0 -157 -13 -157
151 l0 139 123 0 c67 0 129 -5 137 -10z m607 -16 c17 -3 23 -14 29 -51 8 -57
-2 -213 -15 -226 -11 -11 -246 -6 -258 6 -11 11 -17 176 -9 232 5 29 13 45 24
48 20 4 197 -2 229 -9z m650 -27 c10 -11 11 -235 0 -261 -6 -16 -18 -18 -125
-14 -64 2 -123 7 -129 11 -14 9 -19 258 -6 271 10 10 249 3 260 -7z m621 -13
c21 -6 22 -10 22 -124 0 -65 -3 -125 -6 -134 -5 -13 -26 -16 -130 -16 -124 0
-125 0 -134 26 -11 28 -13 195 -4 232 6 21 11 22 118 22 61 0 121 -3 134 -6z
m4036 -175 c29 -10 77 -36 107 -57 141 -99 175 -240 89 -376 -36 -56 -83 -81
-203 -107 -104 -23 -128 -35 -160 -84 -12 -19 -26 -35 -30 -35 -5 0 -49 21
-98 46 l-89 46 16 36 c40 97 109 145 240 169 104 19 144 46 144 98 0 25 -8 40
-31 59 -44 38 -93 35 -136 -6 l-34 -33 -52 29 c-86 49 -127 76 -127 85 0 22
70 98 109 120 83 45 154 48 255 10z m-721 -81 c50 -26 71 -112 42 -168 -44
-85 -190 -76 -224 13 -43 115 72 213 182 155z m-5225 -168 l42 0 0 -140 0
-140 -130 0 c-115 0 -131 2 -138 18 -4 9 -7 70 -7 135 0 93 3 120 15 128 9 6
47 8 95 5 44 -3 99 -6 123 -6z m640 -16 c21 -6 22 -10 22 -146 l0 -140 -129 4
c-71 2 -133 7 -138 11 -11 11 -17 176 -8 233 l6 44 112 0 c62 0 122 -3 135 -6z
m649 -27 c10 -11 11 -235 1 -259 -6 -16 -21 -18 -106 -18 -55 0 -114 3 -131 6
l-31 7 0 132 c0 72 3 135 7 139 10 10 249 3 260 -7z m633 -13 c7 -7 10 -61 8
-140 l-3 -129 -127 0 c-69 0 -130 4 -135 8 -13 13 -16 218 -4 251 l11 28 120
-4 c66 -2 125 -9 130 -14z m3718 -392 c28 -18 52 -68 52 -107 0 -93 -110 -147
-191 -92 -61 41 -76 105 -39 165 37 60 116 75 178 34z m-5629 -38 l31 -6 0
-139 0 -139 -134 0 -135 0 -7 56 c-7 62 -1 204 10 222 8 13 178 17 235 6z
m639 -19 c9 -3 12 -40 12 -139 l0 -135 -36 -7 c-41 -8 -222 1 -232 11 -10 9
-15 199 -8 240 5 24 13 35 29 37 25 5 216 -2 235 -7z m638 -17 c11 -12 17
-159 9 -223 l-7 -56 -131 3 -132 3 -3 134 c-2 101 1 137 10 143 15 10 243 6
254 -4z m-1250 -461 c9 -8 6 -268 -2 -277 -9 -8 -252 -6 -260 3 -11 11 -18
186 -9 242 l6 47 129 -4 c71 -2 132 -7 136 -11z m593 -3 l31 -6 0 -138 0 -138
-27 -3 c-16 -2 -76 -3 -135 -1 l-107 3 -7 35 c-11 62 0 234 16 244 17 11 181
13 229 4z m657 -26 c8 -13 8 -257 0 -265 -10 -10 -120 -15 -190 -8 l-76 7 0
139 0 139 129 0 c92 0 132 -4 137 -12z m4053 -297 c47 -22 122 -55 165 -74 89
-37 122 -70 112 -110 -3 -14 -58 -105 -123 -202 l-116 -176 -36 34 c-51 49
-92 67 -152 67 -48 0 -55 -3 -89 -39 -21 -22 -46 -60 -55 -85 -16 -40 -35 -61
-35 -38 0 4 -25 38 -55 75 -30 36 -55 71 -55 76 0 35 275 481 308 501 27 15
40 12 131 -29z m-5295 -173 c8 -30 8 -187 0 -226 l-6 -30 -111 -4 c-172 -7
-157 -20 -157 143 l0 139 134 0 c130 0 134 -1 140 -22z m544 12 l72 0 0 -140
0 -141 -132 3 -133 3 -3 137 -3 137 28 4 c16 3 44 3 63 1 19 -2 68 -4 108 -4z
m643 -72 c-3 -61 0 -72 28 -118 54 -88 53 -90 -104 -90 l-135 0 0 133 c0 74 3
137 7 141 4 4 52 5 107 4 l101 -3 -4 -67z m4034 -318 c10 -11 27 -48 39 -82
32 -92 44 -90 117 11 l32 45 18 -23 c45 -55 50 -190 10 -268 -30 -59 -252
-336 -262 -326 -4 4 -22 64 -40 132 -17 68 -47 162 -66 210 -28 70 -34 94 -29
130 16 118 65 191 128 191 22 0 42 -7 53 -20z m-4200 -322 c4 -24 12 -49 17
-55 8 -10 82 -13 310 -13 352 0 368 -4 368 -86 l0 -24 -865 0 c-851 0 -865 0
-865 20 0 30 20 67 44 79 14 7 125 12 326 14 262 2 305 4 307 17 1 8 4 32 8
53 l6 37 169 0 168 0 7 -42z"/>
<path d="M2274 1885 c-4 -8 -4 -22 0 -30 5 -13 28 -15 148 -13 l143 3 0 25 0
25 -143 3 c-120 2 -143 0 -148 -13z"/>
<path d="M6820 2440 c-15 -29 -3 -59 26 -66 30 -8 54 11 54 40 0 46 -59 64
-80 26z"/>
<path d="M6996 2364 c-9 -8 -16 -24 -16 -34 0 -20 25 -50 41 -50 27 0 49 22
49 50 0 44 -44 64 -74 34z"/>
<path d="M6746 2314 c-34 -34 -9 -78 41 -72 23 2 29 9 31 33 6 46 -40 71 -72
39z"/>
<path d="M6899 2231 c-20 -16 -22 -22 -11 -45 20 -46 92 -44 92 3 0 22 -28 61
-44 61 -8 0 -24 -8 -37 -19z"/>
<path d="M6652 2188 c-26 -26 1 -68 42 -68 35 0 52 25 38 55 -13 27 -58 35
-80 13z"/>
</g>
</svg>
